<?xml version="1.0" encoding="UTF-8" standalone="no"?>
<!-- Created with Inkscape (http://www.inkscape.org/) -->

<svg
   xmlns:dc="http://purl.org/dc/elements/1.1/"
   xmlns:cc="http://creativecommons.org/ns#"
   xmlns:rdf="http://www.w3.org/1999/02/22-rdf-syntax-ns#"
   xmlns:svg="http://www.w3.org/2000/svg"
   xmlns="http://www.w3.org/2000/svg"
   version="1.1"
   width="300"
   height="205.33713"
   id="svg8139">
  <defs
     id="defs8141">
    <clipPath
       id="clipPath7579">
      <path
         d="m 185.795,530.517 30.568,0 0,-55.517 -30.568,0 0,55.517 z"
         id="path7581" />
    </clipPath>
    <clipPath
       id="clipPath7583">
      <path
         d="m 185.795,475 30.568,0 0,55.517 -30.568,0 0,-55.517 z"
         id="path7585" />
    </clipPath>
    <clipPath
       id="clipPath7603">
      <path
         d="m 222.17,616.524 46.661,0 0,-88.296 -46.661,0 0,88.296 z"
         id="path7605" />
    </clipPath>
    <clipPath
       id="clipPath7607">
      <path
         d="m 222.17,528.228 46.661,0 0,88.296 -46.661,0 0,-88.296 z"
         id="path7609" />
    </clipPath>
    <clipPath
       id="clipPath7627">
      <path
         d="m 216.363,528.228 36.245,0 0,-77.841 -36.245,0 0,77.841 z"
         id="path7629" />
    </clipPath>
    <clipPath
       id="clipPath7631">
      <path
         d="m 216.363,450.387 36.245,0 0,77.841 -36.245,0 0,-77.841 z"
         id="path7633" />
    </clipPath>
    <clipPath
       id="clipPath7651">
      <path
         d="m 188.641,599.443 33.529,0 0,-68.926 -33.529,0 0,68.926 z"
         id="path7653" />
    </clipPath>
    <clipPath
       id="clipPath7655">
      <path
         d="m 188.641,530.517 33.529,0 0,68.926 -33.529,0 0,-68.926 z"
         id="path7657" />
    </clipPath>
    <clipPath
       id="clipPath7675">
      <path
         d="m 205,565.49 28.533,0 0,-72.235 -28.533,0 0,72.235 z"
         id="path7677" />
    </clipPath>
  </defs>
  <metadata
     id="metadata8144">
    <rdf:RDF>
      <cc:Work
         rdf:about="">
        <dc:format>image/svg+xml</dc:format>
        <dc:type
           rdf:resource="http://purl.org/dc/dcmitype/StillImage" />
        <dc:title></dc:title>
      </cc:Work>
    </rdf:RDF>
  </metadata>
  <g
     transform="translate(-649.3742,-207.20373)"
     id="layer1">
    <g
       transform="matrix(0.98876048,0,0,0.98876048,889.29468,-63.759262)"
       id="g8038">
      <g
         transform="matrix(1.25,0,0,-1.25,-474.89204,1044.6981)"
         id="g7587"
         style="fill:#79c142;fill-opacity:1">
        <g
           clip-path="url(#clipPath7579)"
           id="g7589"
           style="fill:#79c142;fill-opacity:1">
          <g
             id="g7591"
             style="fill:#79c142;fill-opacity:1">
            <g
               clip-path="url(#clipPath7583)"
               id="g7593"
               style="fill:#79c142;fill-opacity:1">
              <g
                 transform="translate(187.1602,494.1806)"
                 id="g7595"
                 style="fill:#79c142;fill-opacity:1">
                <path
                   d="m 0,0 c -3.238,-6.598 -0.518,-14.574 6.084,-17.816 6.598,-3.239 14.574,-0.516 17.814,6.086 L 29.203,-0.926 17.84,36.336 0,0 Z"
                   id="path7597"
                   style="fill:#79c142;fill-opacity:1;fill-rule:nonzero;stroke:none" />
              </g>
            </g>
          </g>
        </g>
      </g>
      <g
         transform="matrix(1.25,0,0,-1.25,-474.89204,1044.6981)"
         id="g7611"
         style="fill:#79c142;fill-opacity:1">
        <g
           clip-path="url(#clipPath7603)"
           id="g7613"
           style="fill:#79c142;fill-opacity:1">
          <g
             id="g7615"
             style="fill:#79c142;fill-opacity:1">
            <g
               clip-path="url(#clipPath7607)"
               id="g7617"
               style="fill:#79c142;fill-opacity:1">
              <g
                 transform="translate(261.3848,615.1572)"
                 id="g7619"
                 style="fill:#79c142;fill-opacity:1">
                <path
                   d="M 0,0 C -6.602,3.242 -14.578,0.52 -17.816,-6.082 L -39.215,-49.668 -27.852,-86.93 6.08,-17.813 C 9.32,-11.215 6.598,-3.238 0,0"
                   id="path7621"
                   style="fill:#79c142;fill-opacity:1;fill-rule:nonzero;stroke:none" />
              </g>
            </g>
          </g>
        </g>
      </g>
      <g
         transform="matrix(1.25,0,0,-1.25,-474.89204,1044.6981)"
         id="g7635"
         style="fill:#da1763;fill-opacity:1">
        <g
           clip-path="url(#clipPath7627)"
           id="g7637"
           style="fill:#da1763;fill-opacity:1">
          <g
             id="g7639"
             style="fill:#da1763;fill-opacity:1">
            <g
               clip-path="url(#clipPath7631)"
               id="g7641"
               style="fill:#da1763;fill-opacity:1">
              <g
                 transform="translate(226.5625,459.8173)"
                 id="g7643"
                 style="fill:#da1763;fill-opacity:1">
                <path
                   d="m 0,0 c 2.141,-7.031 9.58,-10.992 16.613,-8.848 7.033,2.145 10.994,9.582 8.85,16.618 L 6.971,68.41 -10.199,33.438 0,0 Z"
                   id="path7645"
                   style="fill:#da1763;fill-opacity:1;fill-rule:nonzero;stroke:none" />
              </g>
            </g>
          </g>
        </g>
      </g>
      <g
         transform="matrix(1.25,0,0,-1.25,-474.89204,1044.6981)"
         id="g7659"
         style="fill:#da1763;fill-opacity:1">
        <g
           clip-path="url(#clipPath7651)"
           id="g7661"
           style="fill:#da1763;fill-opacity:1">
          <g
             id="g7663"
             style="fill:#da1763;fill-opacity:1">
            <g
               clip-path="url(#clipPath7655)"
               id="g7665"
               style="fill:#da1763;fill-opacity:1">
              <g
                 transform="translate(214.6914,590.0127)"
                 id="g7667"
                 style="fill:#da1763;fill-opacity:1">
                <path
                   d="M 0,0 C -2.145,7.031 -9.584,10.992 -16.617,8.848 -23.65,6.703 -27.611,-0.734 -25.469,-7.766 L -9.691,-59.496 7.479,-24.523 0,0 Z"
                   id="path7669"
                   style="fill:#da1763;fill-opacity:1;fill-rule:nonzero;stroke:none" />
              </g>
            </g>
          </g>
        </g>
      </g>
      <g
         transform="matrix(1.25,0,0,-1.25,-474.89204,1044.6981)"
         id="g7679"
         style="fill:#47aa47;fill-opacity:1">
        <g
           clip-path="url(#clipPath7675)"
           id="g7681"
           style="fill:#47aa47;fill-opacity:1">
          <g
             transform="translate(205,530.5166)"
             id="g7683"
             style="fill:#47aa47;fill-opacity:1">
            <path
               d="M 0,0 11.363,-37.262 28.533,-2.289 17.17,34.973 0,0 Z"
               id="path7685"
               style="fill:#47aa47;fill-opacity:1;fill-rule:nonzero;stroke:none" />
          </g>
        </g>
      </g>
      <path
         d="m -135.87354,395.5856 -25.45375,0 c -0.0563,-0.56125 -0.0563,-1.06875 -0.0563,-1.465 0,-6.41625 2.53375,-10.64 8.7275,-14.6925 3.21125,-2.13875 5.18125,-3.4375 5.97,-3.99875 0.84375,-0.62 1.52,-1.41125 2.0825,-2.315 0.56375,-0.95125 0.84375,-2.08 0.84375,-3.14875 0,-2.8175 -1.91375,-4.73125 -4.675,-4.73125 -3.37625,0 -5.29,2.3675 -5.4025,6.7575 l -7.54625,0 c 0.1125,-4.84375 1.2375,-7.65625 4.055,-9.96625 2.36375,-1.91375 5.23625,-2.875 8.89375,-2.875 7.7175,0 12.615,4.0575 12.615,10.4725 0,5.07375 -2.5875,8.565 -9.62875,13.125 -5.34875,3.43375 -6.025,4.1125 -6.59,6.5875 l 16.165,0 0,6.25 z"
         id="path7689"
         style="fill:#9d9fa2;fill-opacity:1;fill-rule:nonzero;stroke:none" />
      <path
         d="m -125.23379,384.55035 c 0,3.49125 2.31,5.68875 5.8575,5.68875 3.3225,0 5.46125,-1.86 5.46125,-4.73125 0,-3.4325 -2.13875,-4.78625 -7.65875,-4.78625 l -0.8425,0 0,-6.1375 0.78875,0 c 5.29,0 7.375,-1.29375 7.375,-4.61875 0,-2.7 -2.085,-4.6725 -5.0125,-4.6725 -3.49125,0 -5.405,2.085 -5.405,5.9125 l 0,0.0537 -7.8275,0 c 0.225,-4.61875 1.295,-7.03625 4.11,-9.2875 2.30875,-1.86 5.4075,-2.82125 9.29125,-2.82125 7.54625,0 12.5025,3.88625 12.5025,9.8575 0,4.22375 -2.42125,7.32 -6.70125,8.38875 1.52125,0.3425 2.0825,0.5625 2.87125,1.01625 2.815,1.465 4.27875,4.11125 4.27875,7.49 0,6.42125 -5.0675,10.415 -13.06375,10.415 -8.7275,0 -13.74,-4.555 -13.74,-12.67125 l 7.77125,0 c 0,0.39625 -0.0563,0.67875 -0.0563,0.90375"
         id="path7693"
         style="fill:#9d9fa2;fill-opacity:1;fill-rule:nonzero;stroke:none" />
      <path
         d="m -86.71579,383.42735 -2.53375,0.39125 c -4.73,0.73125 -6.59,1.80125 -6.59,3.88625 0,1.91375 1.6925,3.2125 4.11125,3.2125 3.8875,0 5.91375,-2.53875 6.02625,-7.66125 l -1.01375,0.17125 z m -3.60375,-15.825 c 3.9425,0 7.095,1.06875 9.12125,3.15375 1.9725,1.9675 2.64875,4.165 2.64875,9.00875 -0.05875,0.39125 -0.05875,1.685 -0.115,3.94125 l 0,2.53375 c 0,4.2775 0.2275,7.095 0.7325,9.34625 l -6.36125,0 c -0.28375,-1.51875 -0.28375,-2.0275 -0.28375,-3.0375 l 0,-1.1275 c -1.97,3.37875 -4.72875,4.785 -9.1775,4.785 -5.8,0 -9.85625,-3.37875 -9.85625,-8.2225 0,-2.0275 0.78875,-3.94125 2.085,-5.29375 1.5775,-1.63125 3.5475,-2.475 7.26625,-3.2075 2.86875,-0.50875 5.96625,-0.9575 8.5575,-1.12875 0,-3.8275 -1.35125,-5.45875 -4.505,-5.45875 -2.98375,0 -4.50375,1.3525 -4.675,3.99875 l -7.7125,0 c 0.3925,-5.8 4.95375,-9.29125 12.275,-9.29125"
         id="path7697"
         style="fill:#9d9fa2;fill-opacity:1;fill-rule:nonzero;stroke:none" />
      <path
         d="m -66.388665,371.76723 c 1.97,-2.64625 4.61875,-3.99875 7.9425,-3.99875 3.94,0 7.31875,2.085 8.5,5.2925 0.67625,1.69 0.78875,3.0425 0.78875,7.095 l 0,15.43 -7.49,0 0,-15.9325 c 0,-4.395 -1.2375,-6.13875 -4.33375,-6.13875 -3.4375,0 -5.0125,2.535 -5.0125,7.99375 l 0,14.0775 -7.49,0 0,-27.1975 7.095,0 0,3.37875 z"
         id="path7701"
         style="fill:#9d9fa2;fill-opacity:1;fill-rule:nonzero;stroke:none" />
      <path
         d="m -32.43354,390.06798 c 3.435,0 5.745,-3.2075 5.745,-8.11 -0.05625,-5.01 -2.14125,-7.99375 -5.6325,-7.99375 -3.49125,0 -5.68625,3.15 -5.68625,8.0525 0,4.73125 2.3075,8.05125 5.57375,8.05125 m 13.12,5.5175 -7.095,0 0,-3.60375 c -1.745,2.8175 -4.4475,4.22375 -7.93875,4.22375 -6.59,0 -11.20625,-5.79625 -11.20625,-14.13125 0,-8.505 4.3925,-14.30625 10.86875,-14.30625 3.66,0 6.08125,1.24 7.88375,4.0525 l 0,-13.735 7.4875,0 0,37.5 z"
         id="path7705"
         style="fill:#9d9fa2;fill-opacity:1;fill-rule:nonzero;stroke:none" />
      <path
         d="m 28.779835,395.5856 -7.49,0 0,-30.18125 -9.18,30.18125 -8.16625,0 -9.2925,-30.18125 0,30.18125 -7.4875,0 0,-37.5 12.55625,0 8.61625,28.37875 8.44625,-28.37875 11.9975,0 0,37.5 z"
         id="path7709"
         style="fill:#9d9fa2;fill-opacity:1;fill-rule:nonzero;stroke:none" />
      <path
         d="m 52.99121,378.86198 c -0.1125,-3.32 -2.36375,-5.57125 -5.68625,-5.57125 -3.26625,0 -5.295,1.90875 -5.9125,5.57125 l 11.59875,0 z m -5.405,17.34375 c -8.4475,0 -13.8525,-5.57625 -13.8525,-14.355 0,-8.4475 5.46125,-14.0825 13.625,-14.0825 8.2225,0 13.40375,5.635 13.40375,14.75625 0,0.44875 -0.05375,0.78625 -0.05375,1.7475 l -19.26,0 c 0.1675,3.94 2.4775,6.19125 6.30625,6.19125 2.53375,0 4.2225,-1.06875 4.955,-3.2075 l 7.99875,0 c -1.74875,5.85375 -6.365,8.95 -13.1225,8.95"
         id="path7713"
         style="fill:#9d9fa2;fill-opacity:1;fill-rule:nonzero;stroke:none" />
    </g>
  </g>
</svg>
