<?xml version="1.0" encoding="utf-8"?>
<svg version="1.1" id="Layer_1" xmlns="http://www.w3.org/2000/svg" xmlns:xlink="http://www.w3.org/1999/xlink" x="0px" y="0px"
	 width="1129px" height="200px" viewBox="0 0 1129 200" enable-background="new 0 0 1129 200" xml:space="preserve">
<g>
	<path fill="#545350" d="M342.3,139.7c-10.1,0-19.2-6.6-21.8-16.7c-5.1,9.1-14.7,16.7-27.3,16.7c-14.2,0-26.3-11.1-26.3-25.3
		c0-19.7,18.7-33.9,54.2-34.4v-5.1c0.5-14.2-7.6-22.8-21.8-22.8c-10.1,0-20.8,6.6-27.8,15.2c-0.5,0.5-3.5-2.5-3.5-3
		c9.1-18.2,25.8-28.4,43-28.4c19.7,0,33.9,14.2,33.4,38l-1.5,39.5c0,9.1,4.1,13.2,8.6,13.2c5.1,0,8.6-4.1,10.6-9.6
		c0-0.5,3,1,3,1.5C364.6,131.6,354.4,139.7,342.3,139.7z M321,85.6c-12.2,1.5-19.7,5.1-24.8,10.1c-4.1,4.1-6.1,9.1-6.1,14.2
		c0,9.1,6.6,15.7,14.7,15.7c5.1,0,10.1-2,12.7-5.1c1-1,2-3,2-5.1L321,85.6z"/>
	<path fill="#545350" d="M468.4,136.2c-7.6,0-20.3,0-26.8,0c-0.5,0-0.5-5.1,0-5.1c11.1-1.5,12.7-2.5,12.7-24.3V76.5
		c0-13.7-8.1-23.3-19.7-23.3c-8.1,0-15.7,4.1-19.2,9.1c-2.5,3-4.1,8.6-4.1,15.7c0,4.1,0,28.9,0,28.9c0,21.8,2.5,22.8,13.7,24.3
		c0,0,0.5,5.1,0,5.1c-6.6,0-18.2,0-25.3,0c-7.6,0-19.7,0-26.3,0c-0.5,0-0.5-5.1-0.5-5.1c12.2-2,13.7-2.5,13.7-24.3v-37
		c0-22.3-2.5-23.3-15.7-25.3c-1,0-0.5-5.1,0-5.1h37.5v22.3h0.5c8.6-16.2,21.8-25.8,38-25.8c18.2,0,32.4,14.2,32.4,37.5v32.9
		c0,21.8,2,22.8,14.2,24.3c1,0,0.5,5.1,0,5.1C486.6,136.2,474.9,136.2,468.4,136.2z"/>
	<path fill="#545350" d="M549.9,139.7c-30.4,0-50.1-23.8-50.1-51.1c0-29.4,19.7-52.7,52.2-52.7c15.2,0,22.8,5.1,27.3,5.1
		c2,0,4.1-1.5,5.1-4.1c0-0.5,6.1-0.5,6.1,0v36.5c0,0.5-6.1,0.5-6.1,0c-8.1-16.7-19.2-30.9-32.4-30.9c-16.2,0-25.8,17.2-25.8,41
		c0,25.3,13.2,42,31.4,42c12.2,0,25.8-8.6,31.4-18.2c0.5-1,4.6,1,4.6,2C586.8,126.6,569.1,139.7,549.9,139.7z"/>
	<path fill="#545350" d="M632.4,86.6c0,21.8,12.2,38.5,32.9,38.5c12.2,0,24.3-8.1,30.9-18.2c0-0.5,4.1,1,4.1,2
		c-5.6,17.2-23.8,30.4-44.1,30.4c-31.9,0-50.6-23.3-50.6-51.1s19.7-52.7,53.2-52.7c25.3,0,42,16.7,43.5,39.5V82h-68.9
		C632.4,83,632.4,86.1,632.4,86.6z M672.9,74.9v-7.1c0-15.7-7.6-24.8-17.2-24.8c-12.2,0-21.3,13.2-23.3,31.9
		C632.4,74.9,672.9,74.9,672.9,74.9z"/>
	<path fill="#545350" d="M752.9,139.2c-15.7,0-29.4-4.1-33.9-7.1c-0.5-0.5-2-13.7-2-26.8c0-0.5,6.1-1,6.1,0
		c8.1,17.7,19.7,27.8,32.4,27.8c10.6,0,18.2-5.6,18.2-14.2c0-10.1-12.2-14.7-24.3-20.3C734.7,93.2,718,85.6,718,66.8
		c0-14.7,12.7-29.9,36.5-29.9c10.1,0,16.7,4.1,21.3,4.1c2,0,4.1-1.5,5.6-4.1c0-0.5,6.1-0.5,6.1,0v33.4c0,0.5-6.1,0.5-6.1,0
		c-8.1-15.2-17.7-25.8-29.4-25.8c-10.6,0-15.7,7.1-15.7,12.7c0,10.1,11.6,14.2,23.8,19.2c14.7,6.1,31.9,13.7,31.9,32.9
		C791.4,126.1,776.2,139.2,752.9,139.2z"/>
	<path fill="#545350" d="M803,50.1c-1.5,0-2-4.1-0.5-5.1c10.6-9.6,28.4-25.8,38-35.9c0.5-0.5,4.1,0,4.1,1V40H879c1,0,1,9.6,0,9.6
		h-34.4v56.2c0,12.7,7.6,18.2,15.7,18.2c6.1,0,12.7-5.1,15.7-11.1c0-0.5,4.1,1.5,4.1,2c-4.1,13.7-17.2,24.3-31.9,24.3
		c-15.7,0-28.4-10.1-28.4-29.9V50.1H803z"/>
	<path fill="#545350" d="M962.5,66.3c-3,0-10.6-9.1-16.2-9.1c-2.5,0-5.6,1.5-8.1,4.1c-4.1,4.1-7.6,13.7-7.6,21.8v24.3
		c0,22.3,3.5,22.8,15.2,24.3c0,0,0.5,5.1,0,5.1c-6.6,0-19.7,0-26.8,0c-7.6,0-20.3,0-26.8,0c-0.5,0-0.5-5.1,0-5.1
		c12.2-2,13.7-2.5,13.7-24.3V69.9c0-21.8-2.5-23.3-15.7-25.3c-1,0-0.5-5.1,0-5.1h39v25.3h1c1-3,3-6.6,4.6-10.1
		c7.1-11.6,15.7-18.7,24.8-18.7c8.6,0,15.7,6.6,15.7,13.7C975.7,57.7,965.6,66.3,962.5,66.3z"/>
	<path fill="#545350" d="M1081,49.6c-4.1,4.1-7.1,12.2-13.7,29.9l-32.9,84.6c-11.6,29.9-22.3,35.9-36.5,35.9
		c-8.1,0-17.2-4.1-17.2-6.6c-0.5-4.1,5.1-18.7,8.1-18.7c1,0,13.2,5.6,19.2,5.6c8.6,0,14.2-5.6,18.7-17.7l6.1-16.2
		c-2-8.1-26.3-61.3-29.4-68.4c-6.1-14.2-10.1-25.3-14.2-29.4c-2.5-2.5-5.1-3.5-12.2-4.6c-0.5,0-0.5-5.1,0-5.1
		c6.6,0,20.3,0.5,27.8,0.5c7.6,0,20.8-0.5,27.3-0.5c0.5,0,0.5,5.1,0,5.1c-15.2,2-13.7,7.1-5.6,27.3l17.7,43l14.2-37
		c5.1-12.7,7.6-20.3,7.6-24.8c0-5.6-3.5-7.6-14.2-8.1c-0.5,0-0.5-5.6,0-5.6c7.1,0,16.2,0.5,22.3,0.5c4.6,0,9.1-0.5,17.7-0.5
		c0.5,0,1,5.6,0,5.6C1087.1,45.1,1084.1,46.6,1081,49.6z"/>
	<path fill="#545350" d="M1107.8,41h-4.1v-2h10.6v2h-4.1v10.6h-2.5V41z M1116.5,39h3l2,4.6l1,3.5l0,0l1-3.5l2-4.6h3v13.2h-2.5
		v-5.6V42l0,0l-3,8.1h-2l-3-8.1l0,0l0.5,4.6v5.6h-2.5V39H1116.5z"/>
	<path fill="#9CBE3C" d="M120.5,95.2c-0.5,0.5-20.3,26.8-66.8,19.7C16.2,108.9,2.5,88.6,0,88.1c3-4.1,31.4-26.8,64.3-26.3
		C97.2,62.3,120.5,81,120.5,81c1,0,20.8,0,20.8,0c-16.7-5.1-37-14.2-46.1-34.4C87.1,27.8,88.6,16.7,85.1,1c0,0,37.5-3,66.3,15.7
		c26.3,17.2,41,62.8,41.5,64.3c1.5,0,16.2,0,16.2,0l-3.5-81l20.3,0.5c-3.5,21.3,1,173.2,0,173.2c-2,0.5-19.2,1.5-20.8-2.5
		c0,0,4.1-74.4,4.6-75.9c0,0-14.7,0-15.7,0c0,1-1.5,43-33.4,65.3s-78,15.7-78,15.7c5.6-8.6,0-17.7,16.2-42.5
		c18.7-28.4,43.5-38.5,43-38.5C140.8,95.2,121.5,95.2,120.5,95.2z M33.9,85.1c3.5,0.5,15.7,16.2,37.5,18.2
		c23.8,2.5,31.9-9.6,32.4-9.6c0-1.5-19.2-22.3-40.5-22.3C48.6,71.4,33.9,85.1,33.9,85.1z M173.2,98.7c-5.6,0-28.4,2-43.5,20.8
		c-15.7,19.7-15.2,35.4-18.7,39c3,1,34.9,4.1,48.6-16.7C172.7,122,173.2,101.8,173.2,98.7z M151.4,33.4
		c-17.7-19.2-35.4-16.2-38.5-15.7c1.5,0.5,3,33.9,21.8,51.6C147.3,81,173.2,77,173.2,77S168.6,52.2,151.4,33.4z"/>
</g>
</svg>
